<svg xmlns="http://www.w3.org/2000/svg" width="64" height="64" viewBox="0 0 64 64" version="1.1"><style>.s0{fill:#fff;stroke-width:1;stroke:#fff;}</style><defs><marker orient="auto" refY="0" refX="0"><path d="M0 0L5-5 -12.5 0 5 5 0 0z" transform="scale(0.8) rotate(180) translate(12.5,0)" class="s0"/></marker><marker orient="auto" refY="0" refX="0"><path d="M0 0L5-5 -12.5 0 5 5 0 0z" transform="scale(0.8) translate(12.5,0)" class="s0"/></marker><marker orient="auto" refY="0" refX="0"><path d="M0 0 5-5-12.5 0 5 5 0 0Z" transform="matrix(-0.8,0,0,-0.8,-10,0)" class="s0"/></marker><marker orient="auto" refY="0" refX="0"><path d="M0 0 5-5-12.5 0 5 5 0 0Z" transform="matrix(-0.8,0,0,-0.8,-10,0)" class="s0"/></marker><marker orient="auto" refY="0" refX="0"><path d="M0 0 5-5-12.5 0 5 5 0 0Z" transform="matrix(-0.8,0,0,-0.8,-10,0)" class="s0"/></marker><marker orient="auto" refY="0" refX="0"><path d="M0 0 5-5-12.5 0 5 5 0 0Z" transform="matrix(-0.8,0,0,-0.8,-10,0)" class="s0"/></marker><marker orient="auto" refY="0" refX="0"><path d="M0 0 5-5-12.5 0 5 5 0 0Z" transform="matrix(-0.8,0,0,-0.8,-10,0)" class="s0"/></marker></defs><g transform="translate(0,-988.36216)"><path d="m40 998.4 0-4-34 0 0 44 14 0" style="fill:none;stroke-linecap:round;stroke-width:3;stroke:#fff"/><path d="m48 1002.4-24 0 0 44 34 0 0-34z" style="fill:none;stroke-width:3;stroke:#fff"/><path d="m32 1038.4 18 0" style="fill:none;marker-mid:url(#Arrow1Lend);stroke-linecap:round;stroke-width:3;stroke:#fff"/><path d="m32 1029.4 18 0" style="fill:none;marker-mid:url(#Arrow1Lend-5);stroke-linecap:round;stroke-width:3;stroke:#fff"/><path d="m32 1020.4 18 0" style="fill:none;marker-mid:url(#Arrow1Lend-4);stroke-linecap:round;stroke-width:3;stroke:#fff"/><path d="m32 1011.4 14 0" style="fill:none;marker-mid:url(#Arrow1Lend-4-7);stroke-linecap:round;stroke-width:3;stroke:#fff"/></g></svg>