<svg xmlns:svg="http://www.w3.org/2000/svg" xmlns="http://www.w3.org/2000/svg" width="256" height="256" viewBox="0 0 256 256" version="1.1"><style>.s0{fill:none;stroke:#fff;}.s1{fill:#fff;}</style><g transform="translate(0,-796.36216)"><path d="m90.6 836.9c33.5 49.8 86.2 13.7 111.2 64.2" class="s0"/><path d="M86.3 834.5 61.4 1004.1" style="fill:none;stroke-linecap:round;stroke-width:10;stroke:#fff"/><path d="m76.7 932.7c33.5 49.8 86.2 13.7 111.2 64.2" class="s0"/><path d="m201.7 900.7-13.9 95.7" class="s0"/><path d="m98.9 899.9c-4.8-3.8-9-8.1-13.1-13.5l-2.3-3 1.5-10.4c0.8-5.7 1.6-10.6 1.7-10.9 0.2-0.4 0.4-0.2 1.3 1.1 3.3 4.6 8.9 10.4 13.3 13.9 1.3 1 2.5 1.9 2.6 2 0.1 0.1-0.5 4.8-1.3 10.5-1.6 11.4-1.7 11.8-2 11.7-0.1 0-1-0.6-1.9-1.4zM124.9 888.6 124.9 888.6c-6.6-1.9-14-5.2-18.8-8.2l-1.9-1.2 0.5-3.1c0.3-1.7 1-7.1 1.7-12 0.7-4.9 1.3-8.9 1.3-8.9 0 0 0.9 0.5 1.9 1.1 2.4 1.5 7.6 4.1 11 5.5 2.9 1.2 8.9 3.1 10.4 3.4 0.9 0.2 0.9 0.2 0.8 1-0.2 1.4-3.3 22.9-3.3 23.2 0 0.3 0 0.3-3.6-0.7zM151.4 916.8c-0.6-0.1-4.8-0.9-9.4-1.7-9.2-1.6-16.2-3-16.7-3.3-0.3-0.2 0-2.5 1.2-10.7 1.8-12.4 1.7-11.8 2.2-11.6 0.9 0.3 8.4 1.8 17.4 3.4 5.2 0.9 9.5 1.8 9.6 1.9 0.2 0.2-2.7 21.9-3 22.2-0.1 0.1-0.6 0.1-1.2-0.1zM118.1 934.6c-5.6-1.7-11.3-4-14.6-5.8-2.6-1.5-5.9-3.5-5.9-3.7 0-0.4 3.3-23.2 3.4-23.3 0-0.1 1.3 0.6 2.8 1.5 5.2 3.1 12.4 6.1 18.4 7.7 1.5 0.4 2.8 0.8 2.9 0.8 0.1 0.1-3.1 22-3.3 23.1-0.1 0.3-0.3 0.6-0.5 0.6-0.2 0-1.7-0.4-3.3-0.9zM172.8 949.3c-4.6-2.9-11.8-5.8-19-7.6-2.5-0.6-4.6-1.3-4.6-1.4-0.1-0.3 3.1-23.1 3.3-23.3 0.3-0.4 9.7 2.3 13.9 3.9 5.4 2.1 11.4 5.4 11.2 6.2-0.1 0.3-0.8 5.5-1.7 11.7-0.9 6.2-1.7 11.3-1.7 11.3 0 0-0.6-0.3-1.3-0.7zM178.7 902.8c-4.8-3-12.3-5.8-20-7.6l-3-0.7 0.1-0.8c0.2-1.3 3.3-22.9 3.3-23.2 0-0.3 6.6 1.3 10.4 2.5 6.6 2.1 14.5 6.1 14.6 7.4 0.1 1.1-3.3 23.3-3.5 23.4-0.1 0-1.1-0.4-2-1zM192.9 943.4c-3.4-5.8-8.4-11.6-13.2-15.3-1.2-0.9-2.1-1.7-2.1-1.8 0-0.6 3.2-21.8 3.3-21.9 0.2-0.2 4.1 3.1 6.6 5.7 3.7 3.8 6.5 7.8 9.2 12.7l1.3 2.3-1.5 10.6c-0.8 5.8-1.6 10.6-1.7 10.6-0.1 0-0.9-1.3-1.9-2.9zM185.9 992.7c-3.5-5.8-8.5-11.6-13.2-15.2-1.3-1-2.2-1.9-2.2-2.2 0-0.4 3.3-23.3 3.5-24.8 0.1-0.6 3.6 2.4 6.6 5.5 3.8 4 7 8.5 9.5 13.3l1 2-1.7 11.9c-0.9 6.5-1.8 12-1.9 12.1-0.1 0.1-0.9-1-1.8-2.5zM144.9 966.3c-0.1-0.1-4.4-0.8-9.4-1.7-9.4-1.7-17-3.2-17.5-3.5-0.2-0.1 0.4-4.8 1.6-12.7 1-6.9 1.8-12.7 1.8-12.9 0-0.2 1.2 0 3.4 0.5 1.9 0.4 7.8 1.5 13.3 2.5 12.4 2.2 11.2 1.9 11.1 2.9-0.1 0.8-3.6 24.8-3.6 25 0 0.1-0.3 0.1-0.7-0.1zM91.1 948.6c-4.6-3.7-9.6-9.2-13.4-14.5l-1.2-1.7 1.8-12.3c1-6.7 1.9-12.3 1.9-12.4 0.1-0.1 0.6 0.6 1.2 1.4 3.3 4.6 9.2 10.7 13.7 14.1 1.7 1.3 2.5 2 2.5 2.4 0 0.3-0.8 5.9-1.7 12.5-1 6.6-1.7 12.1-1.7 12.2 0 0.5-0.4 0.3-2.9-1.8z" fill="#fff"/></g></svg>