<?xml version="1.0" encoding="UTF-8" standalone="no"?>
<!-- Created with Inkscape (http://www.inkscape.org/) -->

<svg
   xmlns:dc="http://purl.org/dc/elements/1.1/"
   xmlns:cc="http://creativecommons.org/ns#"
   xmlns:rdf="http://www.w3.org/1999/02/22-rdf-syntax-ns#"
   xmlns:svg="http://www.w3.org/2000/svg"
   xmlns="http://www.w3.org/2000/svg"
   xmlns:sodipodi="http://sodipodi.sourceforge.net/DTD/sodipodi-0.dtd"
   xmlns:inkscape="http://www.inkscape.org/namespaces/inkscape"
   width="256"
   height="256"
   viewBox="0 0 256 256"
   id="svg2"
   version="1.1"
   inkscape:version="0.91 r13725"
   sodipodi:docname="food.svg">
  <defs
     id="defs4" />
  <sodipodi:namedview
     id="base"
     pagecolor="#ffffff"
     bordercolor="#666666"
     borderopacity="1.0"
     inkscape:pageopacity="0.0"
     inkscape:pageshadow="2"
     inkscape:zoom="1.979899"
     inkscape:cx="220.36958"
     inkscape:cy="89.214367"
     inkscape:document-units="px"
     inkscape:current-layer="layer1"
     showgrid="false"
     inkscape:window-width="1920"
     inkscape:window-height="1057"
     inkscape:window-x="-8"
     inkscape:window-y="-8"
     inkscape:window-maximized="1"
     units="px" />
  <metadata
     id="metadata7">
    <rdf:RDF>
      <cc:Work
         rdf:about="">
        <dc:format>image/svg+xml</dc:format>
        <dc:type
           rdf:resource="http://purl.org/dc/dcmitype/StillImage" />
        <dc:title></dc:title>
      </cc:Work>
    </rdf:RDF>
  </metadata>
  <g
     inkscape:label="Layer 1"
     inkscape:groupmode="layer"
     id="layer1"
     transform="translate(0,-796.36216)">
    <path
       style="fill:none;fill-rule:evenodd;stroke:#000000;stroke-width:15;stroke-linecap:butt;stroke-linejoin:miter;stroke-miterlimit:4;stroke-dasharray:none;stroke-opacity:1"
       d="m 21.84699,1021.6374 213.21429,0"
       id="path4163"
       inkscape:connector-curvature="0" />
    <path
       style="fill:#000000;fill-opacity:1;fill-rule:evenodd;stroke:none;stroke-width:1px;stroke-linecap:butt;stroke-linejoin:miter;stroke-opacity:1"
       d="m 22.561275,1001.9945 211.428565,0 c 0,0 -12.66805,-100.73725 -105,-100.35713 C 36.657902,902.01749 22.561275,1001.9945 22.561275,1001.9945 Z"
       id="path4165"
       inkscape:connector-curvature="0"
       sodipodi:nodetypes="cczc" />
    <path
       style="fill:#ffffff;fill-opacity:1;fill-rule:evenodd;stroke:none;stroke-width:1px;stroke-linecap:butt;stroke-linejoin:miter;stroke-opacity:1"
       d="m 195.06127,995.92308 27.14286,0 c -16.07562,-64.81749 -55.31005,-81.78692 -66.42857,-82.5 20.0991,16.1949 40.89767,39.56454 39.28571,82.5 z"
       id="path4167"
       inkscape:connector-curvature="0"
       sodipodi:nodetypes="cccc" />
    <circle
       style="opacity:1;fill:#000000;fill-opacity:1;stroke:none;stroke-width:15;stroke-linecap:round;stroke-linejoin:miter;stroke-miterlimit:4;stroke-dasharray:none;stroke-opacity:1"
       id="path4169"
       cx="128.56128"
       cy="887.78027"
       r="16" />
    <path
       style="opacity:1;fill:#000000;fill-opacity:1;stroke:none;stroke-width:15;stroke-linecap:round;stroke-linejoin:miter;stroke-miterlimit:4;stroke-dasharray:none;stroke-opacity:1"
       id="path4179"
       d="m 65.462215,830.78153 c -2.75518,3.1399 -4.82197,6.86788 -6.37046,10.73757 -0.57659,1.44089 -1.15108,2.89429 -1.51073,4.40402 -0.39379,1.65308 -0.49331,3.36266 -0.73997,5.04399 0.89849,6.94392 0.29796,5.51784 3.09938,12.51727 2.74975,6.87031 6.96244,13.41817 7.64201,20.97575 0.2026,2.25314 -0.24148,4.51804 -0.36222,6.77705 -2.72023,8.10727 -1.01572,4.29485 -5.03043,11.47407 0,0 -3.64664,2.37074 -3.64664,2.37074 l 0,0 c 4.14935,-7.12552 2.38,-3.34373 5.23694,-11.37835 0.16303,-2.24131 0.65596,-4.48291 0.48909,-6.72392 -0.56316,-7.56294 -4.74454,-14.12809 -7.62598,-20.91713 -3.04783,-7.18104 -2.33628,-5.34508 -3.48526,-12.49451 0.20959,-1.69027 0.2671,-3.40644 0.62878,-5.07081 0.32808,-1.50974 0.88234,-2.96421 1.43114,-4.40843 0.50118,-1.31888 1.10593,-2.59703 1.71462,-3.86987 1.12799,-2.35877 2.38955,-4.65177 4.07973,-6.65887 0,0 4.45,-2.77857 4.45,-2.77857 z"
       inkscape:connector-curvature="0" />
    <path
       style="opacity:1;fill:#000000;fill-opacity:1;stroke:none;stroke-width:15;stroke-linecap:round;stroke-linejoin:miter;stroke-miterlimit:4;stroke-dasharray:none;stroke-opacity:1"
       id="path4179-6"
       d="m 167.36232,819.15102 c 2.75518,3.1399 4.82197,6.86788 6.37046,10.73757 0.57659,1.44089 1.15108,2.89429 1.51073,4.40402 0.39379,1.65308 0.49331,3.36266 0.73997,5.04399 -0.89849,6.94392 -0.29796,5.51784 -3.09938,12.51727 -2.74975,6.87031 -6.96244,13.41817 -7.64201,20.97575 -0.2026,2.25314 0.24148,4.51804 0.36222,6.77705 2.72023,8.10727 1.01572,4.29485 5.03043,11.47407 0,0 3.64664,2.37074 3.64664,2.37074 l 0,0 c -4.14935,-7.12552 -2.38,-3.34373 -5.23694,-11.37835 -0.16303,-2.24131 -0.65596,-4.48291 -0.48909,-6.72392 0.56316,-7.56294 4.74454,-14.12809 7.62598,-20.91713 3.04783,-7.18104 2.33628,-5.34508 3.48526,-12.49451 -0.20959,-1.69027 -0.2671,-3.40644 -0.62878,-5.07081 -0.32808,-1.50974 -0.88234,-2.96421 -1.43114,-4.40843 -0.50118,-1.31888 -1.10593,-2.59703 -1.71462,-3.86987 -1.12799,-2.35877 -2.38955,-4.65177 -4.07973,-6.65887 0,0 -4.45,-2.77857 -4.45,-2.77857 z"
       inkscape:connector-curvature="0" />
    <path
       style="opacity:1;fill:#000000;fill-opacity:1;stroke:none;stroke-width:15;stroke-linecap:round;stroke-linejoin:miter;stroke-miterlimit:4;stroke-dasharray:none;stroke-opacity:1"
       id="path4179-0"
       d="m 92.33132,818.10498 c -2.755179,3.1399 -4.821967,6.86788 -6.370457,10.73757 -0.57659,1.44089 -1.15108,2.89429 -1.51073,4.40402 -0.39379,1.65308 -0.49331,3.36266 -0.73997,5.04399 0.89849,6.94392 0.29796,5.51784 3.09938,12.51727 2.749748,6.87031 6.962435,13.41817 7.642005,20.97575 0.2026,2.25314 -0.24148,4.51804 -0.36222,6.77705 -2.720228,8.10727 -1.015718,4.29485 -5.030427,11.47407 0,0 -3.646638,2.37074 -3.646638,2.37074 l 0,0 c 4.149348,-7.12552 2.379998,-3.34373 5.236941,-11.37835 0.16303,-2.24131 0.655956,-4.48291 0.48909,-6.72392 -0.56316,-7.56294 -4.744541,-14.12809 -7.625981,-20.91713 -3.04783,-7.18104 -2.33628,-5.34508 -3.48526,-12.49451 0.20959,-1.69027 0.2671,-3.40644 0.62878,-5.07081 0.32808,-1.50974 0.88234,-2.96421 1.43114,-4.40843 0.50118,-1.31888 1.10593,-2.59703 1.71462,-3.86987 1.12799,-2.35877 2.38955,-4.65177 4.079728,-6.65887 0,0 4.449999,-2.77857 4.449999,-2.77857 z"
       inkscape:connector-curvature="0" />
    <path
       style="opacity:1;fill:#000000;fill-opacity:1;stroke:none;stroke-width:15;stroke-linecap:round;stroke-linejoin:miter;stroke-miterlimit:4;stroke-dasharray:none;stroke-opacity:1"
       id="path4179-67"
       d="m 192.77022,828.31853 c 2.75518,3.1399 4.82197,6.86788 6.37046,10.73757 0.57659,1.44089 1.15108,2.89429 1.51073,4.40402 0.39379,1.65308 0.49331,3.36266 0.73997,5.04399 -0.89849,6.94392 -0.29796,5.51784 -3.09938,12.51727 -2.74975,6.87031 -6.96244,13.41817 -7.64201,20.97575 -0.2026,2.25314 0.24148,4.51804 0.36222,6.77705 2.72023,8.10727 1.01572,4.29485 5.03043,11.47407 0,0 3.64664,2.37074 3.64664,2.37074 l 0,0 c -4.14935,-7.12552 -2.38,-3.34373 -5.23694,-11.37835 -0.16303,-2.24131 -0.65596,-4.48291 -0.48909,-6.72392 0.56316,-7.56294 4.74454,-14.12809 7.62598,-20.91713 3.04783,-7.18104 2.33628,-5.34508 3.48526,-12.49451 -0.20959,-1.69027 -0.2671,-3.40644 -0.62878,-5.07081 -0.32808,-1.50974 -0.88234,-2.96421 -1.43114,-4.40843 -0.50118,-1.31888 -1.10593,-2.59703 -1.71462,-3.86987 -1.12799,-2.35877 -2.38955,-4.65177 -4.07973,-6.65887 0,0 -4.45,-2.77857 -4.45,-2.77857 z"
       inkscape:connector-curvature="0" />
  </g>
</svg>
