<svg xmlns:svg="http://www.w3.org/2000/svg" xmlns="http://www.w3.org/2000/svg" width="256" height="256" viewBox="0 0 256 256" version="1.1"><style>.s0{fill:#000;}</style><g transform="translate(0,-796.36216)"><path d="m21.8 1021.6 213.2 0" style="fill:none;stroke-width:15;stroke:#000"/><path d="m22.6 1002 211.4 0c0 0-12.7-100.7-105-100.4C36.7 902 22.6 1002 22.6 1002Z" fill="#000"/><path d="m195.1 995.9 27.1 0c-16.1-64.8-55.3-81.8-66.4-82.5 20.1 16.2 40.9 39.6 39.3 82.5z" fill="#fff"/><circle cx="128.6" cy="887.8" r="16" fill="#000"/><path d="m65.5 830.8c-2.8 3.1-4.8 6.9-6.4 10.7-0.6 1.4-1.2 2.9-1.5 4.4-0.4 1.7-0.5 3.4-0.7 5 0.9 6.9 0.3 5.5 3.1 12.5 2.7 6.9 7 13.4 7.6 21 0.2 2.3-0.2 4.5-0.4 6.8-2.7 8.1-1 4.3-5 11.5 0 0-3.6 2.4-3.6 2.4l0 0c4.1-7.1 2.4-3.3 5.2-11.4 0.2-2.2 0.7-4.5 0.5-6.7-0.6-7.6-4.7-14.1-7.6-20.9-3-7.2-2.3-5.3-3.5-12.5 0.2-1.7 0.3-3.4 0.6-5.1 0.3-1.5 0.9-3 1.4-4.4 0.5-1.3 1.1-2.6 1.7-3.9 1.1-2.4 2.4-4.7 4.1-6.7 0 0 4.5-2.8 4.5-2.8zM167.4 819.2c2.8 3.1 4.8 6.9 6.4 10.7 0.6 1.4 1.2 2.9 1.5 4.4 0.4 1.7 0.5 3.4 0.7 5-0.9 6.9-0.3 5.5-3.1 12.5-2.7 6.9-7 13.4-7.6 21-0.2 2.3 0.2 4.5 0.4 6.8 2.7 8.1 1 4.3 5 11.5 0 0 3.6 2.4 3.6 2.4l0 0c-4.1-7.1-2.4-3.3-5.2-11.4-0.2-2.2-0.7-4.5-0.5-6.7 0.6-7.6 4.7-14.1 7.6-20.9 3-7.2 2.3-5.3 3.5-12.5-0.2-1.7-0.3-3.4-0.6-5.1-0.3-1.5-0.9-3-1.4-4.4-0.5-1.3-1.1-2.6-1.7-3.9-1.1-2.4-2.4-4.7-4.1-6.7 0 0-4.4-2.8-4.4-2.8zM92.3 818.1c-2.8 3.1-4.8 6.9-6.4 10.7-0.6 1.4-1.2 2.9-1.5 4.4-0.4 1.7-0.5 3.4-0.7 5 0.9 6.9 0.3 5.5 3.1 12.5 2.7 6.9 7 13.4 7.6 21 0.2 2.3-0.2 4.5-0.4 6.8-2.7 8.1-1 4.3-5 11.5 0 0-3.6 2.4-3.6 2.4l0 0c4.1-7.1 2.4-3.3 5.2-11.4 0.2-2.2 0.7-4.5 0.5-6.7-0.6-7.6-4.7-14.1-7.6-20.9-3-7.2-2.3-5.3-3.5-12.5 0.2-1.7 0.3-3.4 0.6-5.1 0.3-1.5 0.9-3 1.4-4.4 0.5-1.3 1.1-2.6 1.7-3.9 1.1-2.4 2.4-4.7 4.1-6.7 0 0 4.4-2.8 4.4-2.8zM192.8 828.3c2.8 3.1 4.8 6.9 6.4 10.7 0.6 1.4 1.2 2.9 1.5 4.4 0.4 1.7 0.5 3.4 0.7 5-0.9 6.9-0.3 5.5-3.1 12.5-2.7 6.9-7 13.4-7.6 21-0.2 2.3 0.2 4.5 0.4 6.8 2.7 8.1 1 4.3 5 11.5 0 0 3.6 2.4 3.6 2.4l0 0c-4.1-7.1-2.4-3.3-5.2-11.4-0.2-2.2-0.7-4.5-0.5-6.7 0.6-7.6 4.7-14.1 7.6-20.9 3-7.2 2.3-5.3 3.5-12.5-0.2-1.7-0.3-3.4-0.6-5.1-0.3-1.5-0.9-3-1.4-4.4-0.5-1.3-1.1-2.6-1.7-3.9-1.1-2.4-2.4-4.7-4.1-6.7 0 0-4.4-2.8-4.4-2.8z" fill="#000"/></g></svg>