<svg xmlns:svg="http://www.w3.org/2000/svg" xmlns="http://www.w3.org/2000/svg" width="256" height="256" viewBox="0 0 256 256" version="1.1"><g transform="translate(0,-796.36216)"><path d="m42 838.4 11.9 59.4 11.9-23.8 29.7 41.6 5.9-17.8 17.8-5.9-41.6-29.7 23.8-11.9-59.4-11.9zm172.1 0.1-59.4 11.9 23.8 11.9-41.6 29.7 17.8 5.9 5.9 17.8 29.7-41.6 11.9 23.8 11.9-59.4zm-118.4 94.2-29.7 41.6-11.9-23.8-11.9 59.4 59.4-11.9-23.8-11.9 41.6-29.7-17.8-5.9-5.9-17.8zm64.8 0.1-5.9 17.8-17.8 5.9 41.6 29.7-23.8 11.9 59.4 11.9-11.9-59.4-11.9 23.8-29.7-41.6z" fill="#fff"/></g></svg>