<svg xmlns="http://www.w3.org/2000/svg" height="256" width="256" version="1.1" viewBox="0 0 256 256"><g transform="translate(0 -796)"><path d="m78 956c-9-.4-13.6 9-7 17 7 8 21 3 33.4.8 8-1.5 14-3 22 2 8.4-5 16-3 22-2 12 4 28.4 6.5 33-1 5-7.6 2-18-8.5-17-10 1 7-2 9 6 3 10-14 16-23.6 10.6-9.5-5.5-16-9-32-4.5-13.4-4-24-.5-32 4.5-9.5 5.5-27-.4-23.6-10.6 2.4-8 19.4-4.4 9-6-.6 0-1 0-2 0z"/><path d="m162 40c-10 0-25 4-36 35.3-15 42-50 48-61 29-14-23 16-54 59-50-61-9-89 53-44.5 62 45 9 47-57 74.5-72 27-10 30 13 9.6 39-8.3-5.4-6.5 5.5 0 1 8 10-7 34-10 45-18-2-57-5-65 5.7-21 79 61 96 72 40.6-27.6 65-92 9-67-39.3 5-5 43.5-9 60-6.4-.5 3 2.4 5.6 5.6 6.4 3.23.7-.0-6.2-5.2-7 1.7-9 14.5-23.6 15-34.5.1-3.6-1.7-8-4.6-11 21-16.4 30-43.6-2-44zm.7 44c-1.7 2-4.7 1-4.6-.7 1.4-1.5 3 0 4.6.7zm-9 46c2.6.3 6.6 5.5 5 5-2 0-5-2-5-5z" transform="translate(0 796)"/><path d="m129 1040c113 0 159-137 75-208-83-71-232 6-184 138-37-139 100-194 176-137 76 56 59 192-68 207z" /></g></svg>
