<svg xmlns:svg="http://www.w3.org/2000/svg" xmlns="http://www.w3.org/2000/svg" width="256" height="256" viewBox="0 0 256 256" version="1.1"><style>.s0{fill:#fff;stroke-width:5;stroke:#000;}</style><g transform="translate(0,-796.36216)"><circle cx="127.9" cy="924.5" r="120.2" style="fill:none;stroke-linecap:round;stroke-width:9.6;stroke:#000"/><path d="M196.1 995.4C58.5 857.7 55.5 854.2 55.5 854.2c0 0 1.6 48 29.3 70.4 14.7 11.9 40.7 19.4 54.1 32.7 26.2 26 32.5 32.5 46.8 46.8 4.6 4.6 13.8-5.4 10.4-8.8zM187.9 839.2 187.9 839.2 187.9 839.2 187.9 839.2" class="s0"/><path d="m187.9 839.2c0 0-35.8 22.7-41.4 41.4-1.9 6.2 1.7 15.9-2.4 20.8-26.1 31-69 60.3-91.8 90.3-3 4 6.7 13.7 10.6 10.6 29.7-24.7 58.2-67 88.7-93.3 5-4.3 15.5 0.6 21.8-1.2 19-5.5 42-42 42-42l-3.4-3.4c0 0-26.6 26.3-41.5 33.9-2.4 1.2-3.9-0.9-2.2-2.9 10.5-11.9 35.3-39.9 35.3-39.9l-2.8-2.8c0 0-23.7 20.9-40.6 36.1-2.2 1.9-3.6-1.5-2.3-4 7.5-15.1 33.6-40.2 33.6-40.2z" class="s0"/></g></svg>