<svg xmlns:svg="http://www.w3.org/2000/svg" xmlns="http://www.w3.org/2000/svg" width="256" height="256" viewBox="0 0 256 256" version="1.1"><style>.s0{fill:#fff;}</style><g transform="translate(0,-796.36216)"><circle cx="128" cy="924.4" r="101.6" style="fill:none;stroke-linecap:round;stroke-width:16.9;stroke:#fff"/><path d="m136.6 1000.9c0.3-140.2 0.1-152.8 0.1-152.8 0 0 24.1-3.4 24.3 45.1 0.1 31.5-15.1 17.3-9.3 31.5 1.2 8 1.2 5.2 0.7 77.4-4 2.4-15.8 2.5-15.8-1.2zM104.3 852c0 0-0.1 15 0.2 30.7 0.1 6.9-0.4 14.5-3.1 14.7-5.4 0.4-5.5-9.3-5.4-15 0.3-23.4 0.3-30.4 0.3-30.4l-8 1.8c0 0-0.1 5.8 0.4 50 0.1 8.1 11 7.9 11.5 12.5 4.1 40.9-2.8 51.5-2.2 81.6 2.3 9 19.9 7.1 20.2 0.3 0.5-30.2-5.8-40.7-1.7-81.6 0.5-4.7 11.4-4.4 11.5-12.5 0.5-44.3 0.3-50.1 0.3-50.1l-8.1-2.2c0 0-0.2 7.3 0.1 30.7 0.1 5.7-0.1 15.6-5.4 15.2-2.7-0.2-2.8-8.1-2.7-14.7 0.2-15.9 0.2-31 0.2-31-8 0 0 0-7.9 0z" fill="#fff"/></g></svg>