<?xml version="1.0" encoding="UTF-8" standalone="no"?>
<!-- Created with Inkscape (http://www.inkscape.org/) -->

<svg
   xmlns:dc="http://purl.org/dc/elements/1.1/"
   xmlns:cc="http://creativecommons.org/ns#"
   xmlns:rdf="http://www.w3.org/1999/02/22-rdf-syntax-ns#"
   xmlns:svg="http://www.w3.org/2000/svg"
   xmlns="http://www.w3.org/2000/svg"
   xmlns:sodipodi="http://sodipodi.sourceforge.net/DTD/sodipodi-0.dtd"
   xmlns:inkscape="http://www.inkscape.org/namespaces/inkscape"
   width="256"
   height="256"
   viewBox="0 0 256 256"
   id="svg2"
   version="1.1"
   inkscape:version="0.91 r13725"
   sodipodi:docname="foodPlace.svg">
  <defs
     id="defs4" />
  <sodipodi:namedview
     id="base"
     pagecolor="#ffffff"
     bordercolor="#666666"
     borderopacity="1.0"
     inkscape:pageopacity="0.0"
     inkscape:pageshadow="2"
     inkscape:zoom="2.8"
     inkscape:cx="178.84641"
     inkscape:cy="126.95411"
     inkscape:document-units="px"
     inkscape:current-layer="layer1"
     showgrid="false"
     inkscape:window-width="1920"
     inkscape:window-height="1057"
     inkscape:window-x="-8"
     inkscape:window-y="-8"
     inkscape:window-maximized="1"
     units="px" />
  <metadata
     id="metadata7">
    <rdf:RDF>
      <cc:Work
         rdf:about="">
        <dc:format>image/svg+xml</dc:format>
        <dc:type
           rdf:resource="http://purl.org/dc/dcmitype/StillImage" />
        <dc:title></dc:title>
      </cc:Work>
    </rdf:RDF>
  </metadata>
  <g
     inkscape:label="Layer 1"
     inkscape:groupmode="layer"
     id="layer1"
     transform="translate(0,-796.36216)">
    <circle
       style="opacity:1;fill:none;fill-opacity:1;stroke:#000000;stroke-width:9.6153841;stroke-linecap:round;stroke-linejoin:miter;stroke-miterlimit:4;stroke-dasharray:none;stroke-opacity:1"
       id="path4153"
       cx="127.85713"
       cy="924.50494"
       r="120.19231" />
    <path
       style="fill:#ffffff;fill-rule:evenodd;stroke:#000000;stroke-width:5;stroke-linecap:butt;stroke-linejoin:miter;stroke-miterlimit:4;stroke-dasharray:none;stroke-opacity:1;fill-opacity:1"
       d="M 198.13595,996.91797 55.45986,854.24189 c 0,0 1.617364,47.97382 29.252916,70.42813 14.7029,11.94633 40.703734,19.36431 54.140724,32.7034 26.18081,25.99008 32.49038,32.47299 46.83807,46.83808 4.6119,4.6176 12.44438,-7.29353 12.44438,-7.29353 z"
       id="path4155"
       inkscape:connector-curvature="0"
       sodipodi:nodetypes="ccsssc" />
    <path
       style="fill:#ffffff;fill-rule:evenodd;stroke:#000000;stroke-width:5;stroke-linecap:butt;stroke-linejoin:miter;stroke-miterlimit:4;stroke-dasharray:none;stroke-opacity:1;fill-opacity:1"
       d="m 187.93355,839.15786 c 0,0 -35.75232,22.699 -41.37543,41.37543 -1.86934,6.20878 1.73881,15.87185 -2.4393,20.83036 -26.0842,30.95623 -69.002227,60.34619 -91.775746,90.26052 -3.014672,3.95995 6.73044,13.73913 10.557606,10.55763 29.664643,-24.66037 58.18929,-67.03349 88.74529,-93.291 4.99115,-4.28901 15.46534,0.60984 21.78616,-1.22163 19.03041,-5.51411 42.0301,-42.0301 42.0301,-42.0301 l -3.42629,-3.42628 c 0,0 -26.64295,26.31137 -41.49732,33.92118 -2.39255,1.22568 -3.94864,-0.92196 -2.17089,-2.93844 10.5346,-11.94928 35.3145,-39.86019 35.3145,-39.86019 l -2.84462,-2.84463 c 0,0 -23.72564,20.94371 -40.60849,36.06279 -2.15664,1.93133 -3.56139,-1.45592 -2.27086,-4.04738 7.53219,-15.12507 33.64998,-40.21597 33.64998,-40.21597 z"
       id="path4157"
       inkscape:connector-curvature="0"
       sodipodi:nodetypes="cssssssccssccsscc" />
  </g>
</svg>
