<svg xmlns:svg="http://www.w3.org/2000/svg" xmlns="http://www.w3.org/2000/svg" width="256" height="256" viewBox="0 0 256 256" version="1.1"><style>.s0{fill:#000;}</style><g transform="translate(0,-796.36216)"><g transform="translate(-0.35714285,7.142857)"><circle cy="867.3" cx="131" r="50" fill="#000"/></g><path d="m105.5 1029.8c-34.4-1.7-59.9-6.3-75.1-13.7-3.6-1.8-5.2-2.8-7-4.4-6.5-6.1-6.4-14.2 0.2-28.1 7.3-15.2 18.8-34.4 25.6-42.5 4.4-5.2 6.7-7.1 11.6-9.5 10-4.8 23.5-7.8 43.4-9.5 9.1-0.8 38.8-0.9 47.3-0.2 21.8 1.8 35.8 4.8 45.9 9.8 3.1 1.5 4.3 2.4 7.1 5.1 6.7 6.4 13.3 16.2 23.3 34.5 9.3 17 11.7 23.6 11.3 30.6-0.4 6.7-4.2 11-13.4 15.1-15.6 6.9-40.4 11.3-74.2 12.9-8.5 0.4-37.5 0.4-46.1 0l0 0z" fill="#000"/></g></svg>