<svg xmlns="http://www.w3.org/2000/svg" height="256" width="256" version="1.1" viewBox="0 0 256 256" ><defs><radialGradient id="a" gradientUnits="userSpaceOnUse" cy="930" cx="250" gradientTransform="matrix(2.52 0 0 2.57 -373 -1460)" r="101"><stop stop-color="#ccc" offset="0"/><stop stop-color="#fff" stop-opacity="0.7" offset="1"/></radialGradient></defs><g transform="translate(0 -796)"><path d="m128 796a128 128 0 0 0 -128 128 128 128 0 0 0 128 126 128 128 0 0 0 128 -126 128 128 0 0 0 -128 -128z" fill="url(#a)"/><path d="m208 896a28 28 0 0 1 28 28 28 28 0 0 1 -28 28 28 28 0 0 1 -28 -28 28 28 0 0 1 28 -28z" fill="#fff"/></g></svg>